<?xml version="1.0" encoding="UTF-8"?>
<svg width="51px" height="50px" viewBox="0 0 51 50" version="1.1" xmlns="http://www.w3.org/2000/svg" xmlns:xlink="http://www.w3.org/1999/xlink">
<g fill="#FFFFFF" fill-rule="nonzero">
    <path d="M23.6278,20.5211 C23.7884,20.4554 24.0075,20.4225 24.2849,20.4225 C24.3725,20.4225 24.5477,20.4301 24.8105,20.4444 C25.0733,20.459 25.5038,20.4958 26.1027,20.554 L23.7373,13.7205 C23.124,11.983 22.6495,10.8481 22.3137,10.3148 C21.9775,9.7818 21.6128,9.5154 21.2185,9.5154 C20.9119,9.5154 20.6633,9.6325 20.4738,9.8658 C20.284,10.0994 20.1891,10.4133 20.1891,10.8076 C20.1891,11.4794 20.4443,12.6474 20.9556,14.3119 C21.4666,15.9765 22.2332,18.1594 23.2553,20.8605 C23.3431,20.6999 23.4669,20.5868 23.6278,20.5211 Z"></path>
    <path d="M26.2561,29.3366 C26.6065,28.8986 26.9752,28.5009 27.3622,28.143 C27.7488,27.7852 28.154,27.4676 28.5777,27.1901 C27.9499,27.1609 27.3546,27.0954 26.7927,26.9931 C26.2306,26.8912 25.6939,26.7448 25.1829,26.5551 C25.4162,27.0226 25.6243,27.4895 25.8072,27.9567 C25.9896,28.4243 26.139,28.8842 26.2561,29.3366 Z"></path>
    <path d="M34.1846,23.7297 C33.5857,23.2336 32.4215,22.7879 30.6913,22.3937 C28.9611,21.9995 27.1541,21.8023 25.2705,21.8023 C24.7449,21.8023 24.3726,21.8899 24.1536,22.0651 C23.9345,22.2403 23.825,22.5397 23.825,22.963 C23.825,23.9562 24.3799,24.675 25.4896,25.1203 C26.599,25.566 28.395,25.7884 30.8775,25.7884 L31.7755,25.7884 C31.9799,25.7884 32.1442,25.8651 32.2683,26.0184 C32.3921,26.1717 32.4764,26.4017 32.5202,26.7083 C32.2716,26.9419 31.7609,27.2085 30.987,27.5076 C30.2129,27.8069 29.6215,28.1026 29.213,28.3946 C28.3368,29.0374 27.6324,29.8001 27.0994,30.6834 C26.5661,31.5672 26.3,32.4028 26.3,33.1912 C26.3,33.6731 26.4129,34.2535 26.6395,34.9324 C26.8659,35.6114 26.979,36.031 26.979,36.1917 L26.979,36.345 L26.9352,36.5421 C26.2924,36.4983 25.7853,36.1227 25.413,35.4142 C25.0406,34.7061 24.8545,33.7606 24.8545,32.5779 L24.8545,32.381 C24.7374,32.4832 24.6245,32.5563 24.515,32.6001 C24.4055,32.6438 24.285,32.6658 24.1536,32.6658 C24.0221,32.6658 23.898,32.6548 23.7812,32.6328 C23.6641,32.6111 23.5327,32.5781 23.387,32.5343 C23.4308,32.6953 23.4637,32.8519 23.4856,33.0052 C23.5075,33.1585 23.5184,33.279 23.5184,33.3667 C23.5184,33.9069 23.3067,34.3709 22.8833,34.7573 C22.4595,35.1443 21.9558,35.3377 21.3721,35.3377 C20.4522,35.3377 19.5177,34.8887 18.5686,33.9907 C17.6192,33.0928 17.145,32.2134 17.145,31.3515 C17.145,31.191 17.1632,31.0485 17.1997,30.9245 C17.2359,30.8007 17.2983,30.6945 17.3859,30.6069 C17.5903,30.8554 17.875,31.2202 18.2401,31.7021 C19.2038,33.0307 20.0942,33.695 20.9122,33.695 C21.1893,33.695 21.4378,33.6075 21.6568,33.4323 C21.8758,33.257 21.9853,33.0745 21.9853,32.8847 C21.9853,32.6657 21.8393,32.301 21.5473,31.7896 C21.2549,31.2785 20.8537,30.7021 20.3427,30.0594 C19.7586,29.3146 19.2728,28.7707 18.8862,28.4277 C18.4993,28.0848 18.1888,27.9131 17.9554,27.9131 C17.444,27.9131 16.9732,28.1868 16.5427,28.7344 C16.1119,29.2819 15.8966,29.928 15.8966,30.6726 C15.8966,31.2717 16.0463,31.9397 16.3456,32.6768 C16.6446,33.4141 17.0793,34.1551 17.6488,34.8997 C18.5103,36.0533 19.5795,36.94 20.8575,37.5606 C22.135,38.1817 23.5477,38.4914 25.0955,38.4914 C27.9427,38.4914 30.3265,37.4293 32.2465,35.305 C34.1663,33.1805 35.1266,30.5195 35.1266,27.3217 C35.1266,26.3438 35.0533,25.5662 34.9075,24.9892 C34.7614,24.4123 34.5205,23.9925 34.1846,23.7297 Z"></path>
    <path d="M20.7806,28.3947 C21.4231,29.2565 22.029,29.9279 22.5985,30.4098 C23.168,30.8915 23.6203,31.1325 23.9565,31.1325 C24.2047,31.1325 24.4307,31.0197 24.6354,30.7931 C24.8398,30.5667 24.942,30.3222 24.942,30.0593 C24.942,29.7821 24.7412,29.1361 24.3397,28.1209 C23.9378,27.106 23.438,26.1095 22.8394,25.1313 C22.4014,24.4012 21.9707,23.8501 21.5472,23.4776 C21.1234,23.1054 20.7222,22.9192 20.3426,22.9192 C20.036,22.9192 19.6965,23.113 19.3241,23.4996 C18.9518,23.8866 18.7656,24.2479 18.7656,24.5838 C18.7656,24.9341 18.9482,25.4598 19.3131,26.1607 C19.6779,26.8618 20.1673,27.6064 20.7806,28.3947 Z"></path>
    <path d="M25.5557,0.0694 C11.956,0.0694 0.9307,11.0928 0.9307,24.6924 C0.9307,38.2921 11.956,49.3174 25.5557,49.3174 C39.1543,49.3174 50.1797,38.2921 50.1797,24.6924 C50.1798,11.0928 39.1543,0.0694 25.5557,0.0694 Z M33.3414,36.4438 C31.1292,38.7871 28.3003,39.9587 24.8544,39.9587 C23.4965,39.9587 22.1787,39.7141 20.9011,39.2251 C19.6231,38.7358 18.5247,38.0532 17.6049,37.1772 C16.5536,36.2138 15.7651,35.1954 15.2395,34.1223 C14.7138,33.0491 14.451,31.9505 14.451,30.8259 C14.451,29.5703 14.7211,28.5996 15.2614,27.9131 C15.8013,27.2268 16.6555,26.7598 17.8239,26.5112 C17.605,26.0002 17.444,25.5694 17.3421,25.219 C17.2399,24.8687 17.1888,24.5985 17.1888,24.4087 C17.1888,23.7517 17.5356,23.0803 18.2291,22.3937 C18.9223,21.7074 19.5761,21.3643 20.1894,21.3643 C20.4522,21.3643 20.7293,21.4118 21.0216,21.5067 C21.3137,21.6019 21.6492,21.7586 22.0291,21.9776 C20.9045,18.7945 20.0871,16.3378 19.5761,14.6075 C19.0647,12.8773 18.8096,11.6836 18.8096,11.0266 C18.8096,10.1213 19.0429,9.4025 19.5105,8.8693 C19.9777,8.3363 20.6129,8.0699 21.4159,8.0699 C22.7882,8.0699 24.526,11.1362 26.6286,17.2688 C26.9933,18.3201 27.2711,19.1304 27.4609,19.7 C27.6215,19.2476 27.8476,18.6049 28.1399,17.7726 C30.2425,11.6984 32.0527,8.6614 33.5716,8.6614 C34.3163,8.6614 34.911,8.9133 35.3566,9.417 C35.8019,9.9208 36.0246,10.5964 36.0246,11.4429 C36.0246,12.0857 35.78,13.2608 35.2909,14.9691 C34.8015,16.6775 34.0607,18.9115 33.0679,21.6711 C34.3819,21.9196 35.3092,22.4742 35.8494,23.3356 C36.3894,24.1974 36.6598,25.5553 36.6598,27.4095 C36.6595,31.0888 35.5535,34.1003 33.3414,36.4438 Z"></path>
    <path d="M33.7794,14.7171 C34.3269,12.9869 34.6007,11.9246 34.6007,11.5304 C34.6007,11.1069 34.5095,10.7784 34.327,10.5448 C34.1441,10.3114 33.8923,10.1944 33.5714,10.1944 C33.1625,10.1944 32.7464,10.5338 32.323,11.2128 C31.8992,11.8918 31.4323,12.9835 30.9213,14.4872 L28.7311,20.8169 L31.4908,21.2988 C32.4686,18.6411 33.2318,16.4474 33.7794,14.7171 Z"></path>
    </g>
</svg>
